<?xml version="1.0" encoding="UTF-8" standalone="no"?>
<svg
   xmlns:dc="http://purl.org/dc/elements/1.1/"
   xmlns:cc="http://creativecommons.org/ns#"
   xmlns:rdf="http://www.w3.org/1999/02/22-rdf-syntax-ns#"
   xmlns:svg="http://www.w3.org/2000/svg"
   xmlns="http://www.w3.org/2000/svg"
   xmlns:sodipodi="http://sodipodi.sourceforge.net/DTD/sodipodi-0.dtd"
   xmlns:inkscape="http://www.inkscape.org/namespaces/inkscape"
   inkscape:version="1.0 (4035a4fb49, 2020-05-01)"
   sodipodi:docname="set-ring-algebra-ring copy.svg"
   viewBox="0 0 336.21835 160.92607"
   height="160.92607"
   width="336.21835"
   xml:space="preserve"
   id="svg2"
   version="1.1"><metadata
     id="metadata8"><rdf:RDF><cc:Work
         rdf:about=""><dc:format>image/svg+xml</dc:format><dc:type
           rdf:resource="http://purl.org/dc/dcmitype/StillImage" /><dc:title></dc:title></cc:Work></rdf:RDF></metadata><defs
     id="defs6"><clipPath
       id="clipPath34"
       clipPathUnits="userSpaceOnUse"><path
         id="path32"
         clip-rule="evenodd"
         d="M 34.01628,22.67752 C 34.01628,41.46442 18.7869,56.6938 0,56.6938 c -18.7869,0 -34.01628,-15.22938 -34.01628,-34.01628 0,-18.78691 15.22938,-34.01628 34.01628,-34.01628 18.7869,0 34.01628,15.22937 34.01628,34.01628 z M 14.3769,-11.33876 c 0,18.7869 -15.22935,34.01628 -34.01626,34.01628 -18.78689,0 -34.01628,-15.22938 -34.01628,-34.01628 0,-18.7869 15.22939,-34.01628 34.01628,-34.01628 18.78691,0 34.01626,15.22938 34.01626,34.01628 z" /></clipPath><clipPath
       id="clipPath44"
       clipPathUnits="userSpaceOnUse"><path
         id="path42"
         clip-rule="evenodd"
         d="m 14.3769,-11.33876 c 0,18.7869 -15.22935,34.01628 -34.01626,34.01628 -18.78689,0 -34.01628,-15.22938 -34.01628,-34.01628 0,-18.7869 15.22939,-34.01628 34.01628,-34.01628 18.78691,0 34.01626,15.22938 34.01626,34.01628 z M 34.01628,22.67752 C 34.01628,41.46442 18.7869,56.6938 0,56.6938 c -18.7869,0 -34.01628,-15.22938 -34.01628,-34.01628 0,-18.78691 15.22938,-34.01628 34.01628,-34.01628 18.7869,0 34.01628,15.22937 34.01628,34.01628 z" /></clipPath><clipPath
       id="clipPath144"
       clipPathUnits="userSpaceOnUse"><path
         id="path142"
         clip-rule="evenodd"
         d="M 34.01628,22.67752 C 34.01628,41.46442 18.7869,56.6938 0,56.6938 c -18.7869,0 -34.01628,-15.22938 -34.01628,-34.01628 0,-18.78691 15.22938,-34.01628 34.01628,-34.01628 18.7869,0 34.01628,15.22937 34.01628,34.01628 z M 14.3769,-11.33876 c 0,18.7869 -15.22935,34.01628 -34.01626,34.01628 -18.78689,0 -34.01628,-15.22938 -34.01628,-34.01628 0,-18.7869 15.22939,-34.01628 34.01628,-34.01628 18.78691,0 34.01626,15.22938 34.01626,34.01628 z m 39.27874,0 c 0,18.7869 -15.22939,34.01628 -34.01628,34.01628 -18.78691,0 -34.01626,-15.22938 -34.01626,-34.01628 0,-18.7869 15.22935,-34.01628 34.01626,-34.01628 18.78689,0 34.01628,15.22938 34.01628,34.01628 z" /></clipPath><clipPath
       id="clipPath154"
       clipPathUnits="userSpaceOnUse"><path
         id="path152"
         clip-rule="evenodd"
         d="m 14.3769,-11.33876 c 0,18.7869 -15.22935,34.01628 -34.01626,34.01628 -18.78689,0 -34.01628,-15.22938 -34.01628,-34.01628 0,-18.7869 15.22939,-34.01628 34.01628,-34.01628 18.78691,0 34.01626,15.22938 34.01626,34.01628 z m 39.27874,0 c 0,18.7869 -15.22939,34.01628 -34.01628,34.01628 -18.78691,0 -34.01626,-15.22938 -34.01626,-34.01628 0,-18.7869 15.22935,-34.01628 34.01626,-34.01628 18.78689,0 34.01628,15.22938 34.01628,34.01628 z M 34.01628,22.67752 C 34.01628,41.46442 18.7869,56.6938 0,56.6938 c -18.7869,0 -34.01628,-15.22938 -34.01628,-34.01628 0,-18.78691 15.22938,-34.01628 34.01628,-34.01628 18.7869,0 34.01628,15.22937 34.01628,34.01628 z" /></clipPath><clipPath
       id="clipPath164"
       clipPathUnits="userSpaceOnUse"><path
         id="path162"
         clip-rule="evenodd"
         d="m 53.65564,-11.33876 c 0,18.7869 -15.22939,34.01628 -34.01628,34.01628 -18.78691,0 -34.01626,-15.22938 -34.01626,-34.01628 0,-18.7869 15.22935,-34.01628 34.01626,-34.01628 18.78689,0 34.01628,15.22938 34.01628,34.01628 z M 34.01628,22.67752 C 34.01628,41.46442 18.7869,56.6938 0,56.6938 c -18.7869,0 -34.01628,-15.22938 -34.01628,-34.01628 0,-18.78691 15.22938,-34.01628 34.01628,-34.01628 18.7869,0 34.01628,15.22937 34.01628,34.01628 z M 14.3769,-11.33876 c 0,18.7869 -15.22935,34.01628 -34.01626,34.01628 -18.78689,0 -34.01628,-15.22938 -34.01628,-34.01628 0,-18.7869 15.22939,-34.01628 34.01628,-34.01628 18.78691,0 34.01626,15.22938 34.01626,34.01628 z" /></clipPath></defs><sodipodi:namedview
     inkscape:current-layer="g10"
     inkscape:window-maximized="0"
     inkscape:window-y="54"
     inkscape:window-x="0"
     inkscape:cy="99.218624"
     inkscape:cx="182.92312"
     inkscape:zoom="7.6363636"
     showgrid="false"
     id="namedview4"
     inkscape:window-height="2106"
     inkscape:window-width="3840"
     inkscape:pageshadow="2"
     inkscape:pageopacity="0"
     guidetolerance="10"
     gridtolerance="10"
     objecttolerance="10"
     borderopacity="1"
     bordercolor="#666666"
     pagecolor="#ffffff" /><g
     transform="matrix(1.3333333,0,0,-1.3333333,-238.49081,815.17605)"
     inkscape:label="set-ring-algebra-ring copy"
     inkscape:groupmode="layer"
     id="g10"><g
       id="g490"><g
         transform="translate(232.723,554.489)"
         id="g20"><g
           id="g22"><g
             id="g24" /><g
             id="g26"><g
               id="g28"><g
                 clip-path="url(#clipPath34)"
                 id="g30"><path
                   id="path36"
                   style="fill:#2aa198;fill-opacity:1;fill-rule:evenodd;stroke:none"
                   d="M 34.01628,22.67752 C 34.01628,41.46442 18.7869,56.6938 0,56.6938 c -18.7869,0 -34.01628,-15.22938 -34.01628,-34.01628 0,-18.78691 15.22938,-34.01628 34.01628,-34.01628 18.7869,0 34.01628,15.22937 34.01628,34.01628 z" /></g></g><g
               id="g38"><g
                 clip-path="url(#clipPath44)"
                 id="g40"><path
                   id="path46"
                   style="fill:#2aa198;fill-opacity:1;fill-rule:evenodd;stroke:none"
                   d="m 14.3769,-11.33876 c 0,18.7869 -15.22935,34.01628 -34.01626,34.01628 -18.78689,0 -34.01628,-15.22938 -34.01628,-34.01628 0,-18.7869 15.22939,-34.01628 34.01628,-34.01628 18.78691,0 34.01626,15.22938 34.01626,34.01628 z" /></g></g><path
               id="path48"
               style="fill:none;stroke:#586e75;stroke-width:0.3985;stroke-linecap:butt;stroke-linejoin:miter;stroke-miterlimit:10;stroke-dasharray:none;stroke-opacity:1"
               d="M 34.01628,22.67752 C 34.01628,41.46442 18.7869,56.6938 0,56.6938 c -18.7869,0 -34.01628,-15.22938 -34.01628,-34.01628 0,-18.78691 15.22938,-34.01628 34.01628,-34.01628 18.7869,0 34.01628,15.22937 34.01628,34.01628 z" /><g
               id="g50"><g
                 id="g52"><g
                   transform="scale(-1)"
                   id="g54"><g
                     id="g56" /><g
                     transform="rotate(180,80.3615,-82.7555)"
                     id="g58"><g
                       id="g60" /><g
                       transform="translate(-4.761,26.376)"
                       id="g62"><text
                         id="text66"
                         style="font-style:italic;font-variant:normal;font-weight:normal;font-size:10.5px;font-family:CMMI10;-inkscape-font-specification:CMMI10;writing-mode:lr-tb;fill:#d33682;fill-opacity:1;fill-rule:nonzero;stroke:none"
                         transform="matrix(1,0,0,-1,160.723,-165.511)"><tspan
                           id="tspan64"
                           y="0"
                           x="0">X</tspan></text></g><g
                       transform="translate(160.723,-165.511)"
                       id="g68" /></g></g></g></g><path
               id="path70"
               style="fill:none;stroke:#586e75;stroke-width:0.3985;stroke-linecap:butt;stroke-linejoin:miter;stroke-miterlimit:10;stroke-dasharray:none;stroke-opacity:1"
               d="m 14.3769,-11.33876 c 0,18.7869 -15.22935,34.01628 -34.01626,34.01628 -18.78689,0 -34.01628,-15.22938 -34.01628,-34.01628 0,-18.7869 15.22939,-34.01628 34.01628,-34.01628 18.78691,0 34.01626,15.22938 34.01626,34.01628 z" /><g
               id="g72"><g
                 id="g74"><g
                   transform="scale(-1)"
                   id="g76"><g
                     id="g78" /><g
                     transform="rotate(180,80.3615,-82.7555)"
                     id="g80"><g
                       id="g82" /><g
                       transform="translate(-31.768,-22.213)"
                       id="g84"><text
                         id="text88"
                         style="font-style:italic;font-variant:normal;font-weight:normal;font-size:10.5px;font-family:CMMI10;-inkscape-font-specification:CMMI10;writing-mode:lr-tb;fill:#d33682;fill-opacity:1;fill-rule:nonzero;stroke:none"
                         transform="matrix(1,0,0,-1,160.723,-165.511)"><tspan
                           id="tspan86"
                           y="0"
                           x="0">Y</tspan></text></g><g
                       transform="translate(160.723,-165.511)"
                       id="g90" /></g></g></g></g><path
               id="path92"
               style="fill:none;stroke:#586e75;stroke-width:0.3985;stroke-linecap:butt;stroke-linejoin:miter;stroke-miterlimit:10;stroke-dasharray:none;stroke-opacity:1"
               d="m 53.65564,-11.33876 c 0,18.7869 -15.22939,34.01628 -34.01628,34.01628 -18.78691,0 -34.01626,-15.22938 -34.01626,-34.01628 0,-18.7869 15.22935,-34.01628 34.01626,-34.01628 18.78689,0 34.01628,15.22938 34.01628,34.01628 z" /><g
               id="g94"><g
                 id="g96"><g
                   transform="scale(-1)"
                   id="g98"><g
                     id="g100" /><g
                     transform="rotate(180,80.3615,-82.7555)"
                     id="g102"><g
                       id="g104" /><g
                       transform="translate(23.338,-22.213)"
                       id="g106"><text
                         id="text110"
                         style="font-style:italic;font-variant:normal;font-weight:normal;font-size:10.5px;font-family:CMMI10;-inkscape-font-specification:CMMI10;writing-mode:lr-tb;fill:#d33682;fill-opacity:1;fill-rule:nonzero;stroke:none"
                         transform="matrix(1,0,0,-1,160.723,-165.511)"><tspan
                           id="tspan108"
                           y="0"
                           x="0">Z</tspan></text></g><g
                       transform="translate(160.723,-165.511)"
                       id="g112" /></g></g></g></g></g></g></g><text
         id="text116"
         style="font-variant:normal;font-size:7.5px;font-family:'EB Garamond SC';-inkscape-font-specification:EBGaramond08-Regular-Identity-H;writing-mode:lr-tb;fill:#586e75;fill-opacity:1;fill-rule:nonzero;stroke:none"
         transform="scale(1,-1)"
         x="216.509"
         y="-492.55499"><tspan
           id="tspan114"
           sodipodi:role="line"
           y="-492.55499"
           x="216.509 218.6915 221.759">(a)</tspan></text><text
         id="text120"
         style="font-style:italic;font-variant:normal;font-weight:normal;font-size:7.5px;font-family:CMMI7;-inkscape-font-specification:CMMI7;writing-mode:lr-tb;fill:#d33682;fill-opacity:1;fill-rule:nonzero;stroke:none"
         transform="scale(1,-1)"
         x="227.40601"
         y="-492.55499"><tspan
           id="tspan118"
           y="-492.55499"
           x="227.40601">X</tspan></text><text
         id="text124"
         style="font-variant:normal;font-weight:normal;font-size:7.5px;font-family:CMR7;-inkscape-font-specification:CMR7;writing-mode:lr-tb;fill:#d33682;fill-opacity:1;fill-rule:nonzero;stroke:none"
         transform="scale(1,-1)"
         x="235.01601"
         y="-492.55499"><tspan
           id="tspan122"
           y="-492.55499"
           x="235.01601">∆</tspan></text><text
         id="text128"
         style="font-style:italic;font-variant:normal;font-weight:normal;font-size:7.5px;font-family:CMMI7;-inkscape-font-specification:CMMI7;writing-mode:lr-tb;fill:#d33682;fill-opacity:1;fill-rule:nonzero;stroke:none"
         transform="scale(1,-1)"
         x="242.05499"
         y="-492.55499"><tspan
           id="tspan126"
           y="-492.55499"
           x="242.05499">Y</tspan></text><g
         transform="translate(377.177,554.489)"
         id="g130"><g
           id="g132"><g
             id="g134" /><g
             id="g136"><g
               id="g138"><g
                 clip-path="url(#clipPath144)"
                 id="g140"><path
                   id="path146"
                   style="fill:#2aa198;fill-opacity:1;fill-rule:evenodd;stroke:none"
                   d="M 34.01628,22.67752 C 34.01628,41.46442 18.7869,56.6938 0,56.6938 c -18.7869,0 -34.01628,-15.22938 -34.01628,-34.01628 0,-18.78691 15.22938,-34.01628 34.01628,-34.01628 18.7869,0 34.01628,15.22937 34.01628,34.01628 z" /></g></g><g
               id="g148"><g
                 clip-path="url(#clipPath154)"
                 id="g150"><path
                   id="path156"
                   style="fill:#2aa198;fill-opacity:1;fill-rule:evenodd;stroke:none"
                   d="m 14.3769,-11.33876 c 0,18.7869 -15.22935,34.01628 -34.01626,34.01628 -18.78689,0 -34.01628,-15.22938 -34.01628,-34.01628 0,-18.7869 15.22939,-34.01628 34.01628,-34.01628 18.78691,0 34.01626,15.22938 34.01626,34.01628 z" /></g></g><g
               id="g158"><g
                 clip-path="url(#clipPath164)"
                 id="g160"><path
                   id="path166"
                   style="fill:#2aa198;fill-opacity:1;fill-rule:evenodd;stroke:none"
                   d="m 53.65564,-11.33876 c 0,18.7869 -15.22939,34.01628 -34.01628,34.01628 -18.78691,0 -34.01626,-15.22938 -34.01626,-34.01628 0,-18.7869 15.22935,-34.01628 34.01626,-34.01628 18.78689,0 34.01628,15.22938 34.01628,34.01628 z" /></g></g><path
               id="path168"
               style="fill:none;stroke:#586e75;stroke-width:0.3985;stroke-linecap:butt;stroke-linejoin:miter;stroke-miterlimit:10;stroke-dasharray:none;stroke-opacity:1"
               d="M 34.01628,22.67752 C 34.01628,41.46442 18.7869,56.6938 0,56.6938 c -18.7869,0 -34.01628,-15.22938 -34.01628,-34.01628 0,-18.78691 15.22938,-34.01628 34.01628,-34.01628 18.7869,0 34.01628,15.22937 34.01628,34.01628 z" /><g
               id="g170"><g
                 id="g172"><g
                   transform="scale(-1)"
                   id="g174"><g
                     id="g176" /><g
                     transform="rotate(180,152.5885,-82.7555)"
                     id="g178"><g
                       id="g180" /><g
                       transform="translate(-4.761,26.376)"
                       id="g182"><text
                         id="text186"
                         style="font-style:italic;font-variant:normal;font-weight:normal;font-size:10.5px;font-family:CMMI10;-inkscape-font-specification:CMMI10;writing-mode:lr-tb;fill:#d33682;fill-opacity:1;fill-rule:nonzero;stroke:none"
                         transform="matrix(1,0,0,-1,305.177,-165.511)"><tspan
                           id="tspan184"
                           y="0"
                           x="0">X</tspan></text></g><g
                       transform="translate(305.177,-165.511)"
                       id="g188" /></g></g></g></g><path
               id="path190"
               style="fill:none;stroke:#586e75;stroke-width:0.3985;stroke-linecap:butt;stroke-linejoin:miter;stroke-miterlimit:10;stroke-dasharray:none;stroke-opacity:1"
               d="m 14.3769,-11.33876 c 0,18.7869 -15.22935,34.01628 -34.01626,34.01628 -18.78689,0 -34.01628,-15.22938 -34.01628,-34.01628 0,-18.7869 15.22939,-34.01628 34.01628,-34.01628 18.78691,0 34.01626,15.22938 34.01626,34.01628 z" /><g
               id="g192"><g
                 id="g194"><g
                   transform="scale(-1)"
                   id="g196"><g
                     id="g198" /><g
                     transform="rotate(180,152.5885,-82.7555)"
                     id="g200"><g
                       id="g202" /><g
                       transform="translate(-31.768,-22.213)"
                       id="g204"><text
                         id="text208"
                         style="font-style:italic;font-variant:normal;font-weight:normal;font-size:10.5px;font-family:CMMI10;-inkscape-font-specification:CMMI10;writing-mode:lr-tb;fill:#d33682;fill-opacity:1;fill-rule:nonzero;stroke:none"
                         transform="matrix(1,0,0,-1,305.177,-165.511)"><tspan
                           id="tspan206"
                           y="0"
                           x="0">Y</tspan></text></g><g
                       transform="translate(305.177,-165.511)"
                       id="g210" /></g></g></g></g><path
               id="path212"
               style="fill:none;stroke:#586e75;stroke-width:0.3985;stroke-linecap:butt;stroke-linejoin:miter;stroke-miterlimit:10;stroke-dasharray:none;stroke-opacity:1"
               d="m 53.65564,-11.33876 c 0,18.7869 -15.22939,34.01628 -34.01628,34.01628 -18.78691,0 -34.01626,-15.22938 -34.01626,-34.01628 0,-18.7869 15.22935,-34.01628 34.01626,-34.01628 18.78689,0 34.01628,15.22938 34.01628,34.01628 z" /><g
               id="g214"><g
                 id="g216"><g
                   transform="scale(-1)"
                   id="g218"><g
                     id="g220" /><g
                     transform="rotate(180,152.5885,-82.7555)"
                     id="g222"><g
                       id="g224" /><g
                       transform="translate(23.338,-22.213)"
                       id="g226"><text
                         id="text230"
                         style="font-style:italic;font-variant:normal;font-weight:normal;font-size:10.5px;font-family:CMMI10;-inkscape-font-specification:CMMI10;writing-mode:lr-tb;fill:#d33682;fill-opacity:1;fill-rule:nonzero;stroke:none"
                         transform="matrix(1,0,0,-1,305.177,-165.511)"><tspan
                           id="tspan228"
                           y="0"
                           x="0">Z</tspan></text></g><g
                       transform="translate(305.177,-165.511)"
                       id="g232" /></g></g></g></g></g></g></g><text
         id="text236"
         style="font-variant:normal;font-size:7.5px;font-family:'EB Garamond SC';-inkscape-font-specification:EBGaramond08-Regular-Identity-H;writing-mode:lr-tb;fill:#586e75;fill-opacity:1;fill-rule:nonzero;stroke:none"
         transform="scale(1,-1)"
         x="350.577"
         y="-492.55499"><tspan
           id="tspan234"
           sodipodi:role="line"
           y="-492.55499"
           x="350.577 352.75949 356.50201">(b)</tspan></text><text
         id="text240"
         style="font-variant:normal;font-weight:normal;font-size:7.5px;font-family:CMR7;-inkscape-font-specification:CMR7;writing-mode:lr-tb;fill:#d33682;fill-opacity:1;fill-rule:nonzero;stroke:none"
         transform="scale(1,-1)"
         x="362.14999"
         y="-492.55499"><tspan
           id="tspan238"
           y="-492.55499"
           x="362.14999">(</tspan></text><text
         id="text244"
         style="font-style:italic;font-variant:normal;font-weight:normal;font-size:7.5px;font-family:CMMI7;-inkscape-font-specification:CMMI7;writing-mode:lr-tb;fill:#d33682;fill-opacity:1;fill-rule:nonzero;stroke:none"
         transform="scale(1,-1)"
         x="365.49799"
         y="-492.55499"><tspan
           id="tspan242"
           y="-492.55499"
           x="365.49799">X</tspan></text><text
         id="text248"
         style="font-variant:normal;font-weight:normal;font-size:7.5px;font-family:CMR7;-inkscape-font-specification:CMR7;writing-mode:lr-tb;fill:#d33682;fill-opacity:1;fill-rule:nonzero;stroke:none"
         transform="scale(1,-1)"
         x="373.10699"
         y="-492.55499"><tspan
           id="tspan246"
           y="-492.55499"
           x="373.10699">∆</tspan></text><text
         id="text252"
         style="font-style:italic;font-variant:normal;font-weight:normal;font-size:7.5px;font-family:CMMI7;-inkscape-font-specification:CMMI7;writing-mode:lr-tb;fill:#d33682;fill-opacity:1;fill-rule:nonzero;stroke:none"
         transform="scale(1,-1)"
         x="380.146"
         y="-492.55499"><tspan
           id="tspan250"
           y="-492.55499"
           x="380.146">Y</tspan></text><text
         id="text256"
         style="font-variant:normal;font-weight:normal;font-size:7.5px;font-family:CMR7;-inkscape-font-specification:CMR7;writing-mode:lr-tb;fill:#d33682;fill-opacity:1;fill-rule:nonzero;stroke:none"
         transform="scale(1,-1)"
         x="387.02802"
         y="-492.55499"><tspan
           id="tspan254"
           sodipodi:role="line"
           y="-492.55499"
           x="387.02802 390.37601">)∆</tspan></text><text
         id="text260"
         style="font-style:italic;font-variant:normal;font-weight:normal;font-size:7.5px;font-family:CMMI7;-inkscape-font-specification:CMMI7;writing-mode:lr-tb;fill:#d33682;fill-opacity:1;fill-rule:nonzero;stroke:none"
         transform="scale(1,-1)"
         x="397.41501"
         y="-492.55499"><tspan
           id="tspan258"
           y="-492.55499"
           x="397.41501">Z</tspan></text></g></g></svg>
